<svg width="18" height="21" viewBox="0 0 18 21" fill="none" xmlns="http://www.w3.org/2000/svg">
<path d="M13.3074 2.38426V0.888203C13.3074 0.495009 12.9813 0.168945 12.5881 0.168945C12.1949 0.168945 11.8689 0.495009 11.8689 0.888203V2.32672H5.6353V0.888203C5.6353 0.495009 5.30924 0.168945 4.91604 0.168945C4.52285 0.168945 4.19678 0.495009 4.19678 0.888203V2.38426C1.60745 2.62401 0.35115 4.16802 0.159347 6.46006C0.140167 6.73817 0.37033 6.96833 0.638853 6.96833H16.8653C17.1434 6.96833 17.3736 6.72858 17.3448 6.46006C17.153 4.16802 15.8967 2.62401 13.3074 2.38426V2.38426ZM16.4242 8.40685H1.08C0.552542 8.40685 0.120987 8.8384 0.120987 9.36586V15.2734C0.120987 18.1504 1.5595 20.0684 4.91604 20.0684H12.5881C15.9447 20.0684 17.3832 18.1504 17.3832 15.2734V9.36586C17.3832 8.8384 16.9516 8.40685 16.4242 8.40685ZM6.07644 16.4338C6.02849 16.4721 5.98054 16.5201 5.93259 16.5489C5.87505 16.5872 5.81751 16.616 5.75997 16.6352C5.70243 16.6639 5.64489 16.6831 5.58735 16.6927C5.52022 16.7023 5.46268 16.7119 5.39555 16.7119C5.27088 16.7119 5.1462 16.6831 5.03112 16.6352C4.90645 16.5872 4.81055 16.5201 4.71465 16.4338C4.54203 16.2516 4.43654 16.0022 4.43654 15.7529C4.43654 15.5035 4.54203 15.2542 4.71465 15.072C4.81055 14.9857 4.90645 14.9185 5.03112 14.8706C5.20374 14.7939 5.39555 14.7747 5.58735 14.813C5.64489 14.8226 5.70243 14.8418 5.75997 14.8706C5.81751 14.8898 5.87505 14.9185 5.93259 14.9569L6.07644 15.072C6.24907 15.2542 6.35456 15.5035 6.35456 15.7529C6.35456 16.0022 6.24907 16.2516 6.07644 16.4338ZM6.07644 13.0772C5.89423 13.2499 5.64489 13.3553 5.39555 13.3553C5.1462 13.3553 4.89686 13.2499 4.71465 13.0772C4.54203 12.895 4.43654 12.6457 4.43654 12.3963C4.43654 12.147 4.54203 11.8976 4.71465 11.7154C4.98317 11.4469 5.40514 11.3606 5.75997 11.514C5.88464 11.562 5.99013 11.6291 6.07644 11.7154C6.24907 11.8976 6.35456 12.147 6.35456 12.3963C6.35456 12.6457 6.24907 12.895 6.07644 13.0772ZM9.43298 16.4338C9.25077 16.6064 9.00143 16.7119 8.75208 16.7119C8.50274 16.7119 8.2534 16.6064 8.07119 16.4338C7.89856 16.2516 7.79307 16.0022 7.79307 15.7529C7.79307 15.5035 7.89856 15.2542 8.07119 15.072C8.42602 14.7171 9.07815 14.7171 9.43298 15.072C9.6056 15.2542 9.7111 15.5035 9.7111 15.7529C9.7111 16.0022 9.6056 16.2516 9.43298 16.4338V16.4338ZM9.43298 13.0772L9.28913 13.1923C9.23159 13.2307 9.17405 13.2594 9.11651 13.2786C9.05897 13.3074 9.00143 13.3266 8.94389 13.3362C8.87676 13.3458 8.81922 13.3553 8.75208 13.3553C8.50274 13.3553 8.2534 13.2499 8.07119 13.0772C7.89856 12.895 7.79307 12.6457 7.79307 12.3963C7.79307 12.147 7.89856 11.8976 8.07119 11.7154C8.1575 11.6291 8.26299 11.562 8.38766 11.514C8.74249 11.3606 9.16446 11.4469 9.43298 11.7154C9.6056 11.8976 9.7111 12.147 9.7111 12.3963C9.7111 12.6457 9.6056 12.895 9.43298 13.0772V13.0772ZM12.7895 16.4338C12.6073 16.6064 12.358 16.7119 12.1086 16.7119C11.8593 16.7119 11.6099 16.6064 11.4277 16.4338C11.2551 16.2516 11.1496 16.0022 11.1496 15.7529C11.1496 15.5035 11.2551 15.2542 11.4277 15.072C11.7826 14.7171 12.4347 14.7171 12.7895 15.072C12.9621 15.2542 13.0676 15.5035 13.0676 15.7529C13.0676 16.0022 12.9621 16.2516 12.7895 16.4338ZM12.7895 13.0772L12.6457 13.1923C12.5881 13.2307 12.5306 13.2594 12.473 13.2786C12.4155 13.3074 12.358 13.3266 12.3004 13.3362C12.2333 13.3458 12.1662 13.3553 12.1086 13.3553C11.8593 13.3553 11.6099 13.2499 11.4277 13.0772C11.2551 12.895 11.1496 12.6457 11.1496 12.3963C11.1496 12.147 11.2551 11.8976 11.4277 11.7154C11.5236 11.6291 11.6195 11.562 11.7442 11.514C11.9168 11.4373 12.1086 11.4181 12.3004 11.4565C12.358 11.4661 12.4155 11.4853 12.473 11.514C12.5306 11.5332 12.5881 11.562 12.6457 11.6004L12.7895 11.7154C12.9621 11.8976 13.0676 12.147 13.0676 12.3963C13.0676 12.6457 12.9621 12.895 12.7895 13.0772V13.0772Z" fill="black" fill-opacity="0.8"/>
</svg>
