<svg width="70" height="17" viewBox="0 0 70 17" fill="none" xmlns="http://www.w3.org/2000/svg">
<path d="M0.77 8.3C0.77 12.898 4.136 16.132 8.558 16.132C11.968 16.132 14.74 14.328 15.774 11.16H12.232C11.506 12.656 10.186 13.382 8.536 13.382C5.852 13.382 3.938 11.402 3.938 8.3C3.938 5.176 5.852 3.218 8.536 3.218C10.186 3.218 11.506 3.944 12.232 5.418H15.774C14.74 2.272 11.968 0.446 8.558 0.446C4.136 0.446 0.77 3.702 0.77 8.3ZM29.1627 11.468C29.1627 12.766 28.2827 13.492 26.7867 13.492H23.6847V9.356H26.7207C28.2167 9.356 29.1627 10.148 29.1627 11.468ZM28.7887 5.066C28.7887 6.32 27.9527 6.98 26.5007 6.98H23.6847V3.13H26.5007C27.9527 3.13 28.7887 3.834 28.7887 5.066ZM32.2867 11.842C32.2867 10.038 31.0547 8.432 29.3167 8.124C30.8127 7.64 31.9347 6.474 31.9347 4.604C31.9347 2.316 30.1527 0.644 26.9407 0.644H20.6047V16H27.2267C30.4167 16 32.2867 14.284 32.2867 11.842ZM42.3094 0.644H36.9414V16H42.3094C47.2154 16 50.4054 12.986 50.4054 8.344C50.4054 3.68 47.2154 0.644 42.3094 0.644ZM40.0214 13.382V3.24H42.1994C45.4334 3.24 47.2594 5.154 47.2594 8.344C47.2594 11.534 45.4334 13.382 42.1994 13.382H40.0214ZM54.163 8.3C54.163 12.898 57.529 16.132 61.951 16.132C65.361 16.132 68.133 14.328 69.167 11.16H65.625C64.899 12.656 63.579 13.382 61.929 13.382C59.245 13.382 57.331 11.402 57.331 8.3C57.331 5.176 59.245 3.218 61.929 3.218C63.579 3.218 64.899 3.944 65.625 5.418H69.167C68.133 2.272 65.361 0.446 61.951 0.446C57.529 0.446 54.163 3.702 54.163 8.3Z" fill="#0047B1"/>
</svg>
