<svg width="38" height="43" viewBox="0 0 38 43" fill="none" xmlns="http://www.w3.org/2000/svg">
<path d="M19 21.0001C21.7627 21.0001 24.4122 19.9026 26.3657 17.9491C28.3192 15.9956 29.4167 13.3461 29.4167 10.5834C29.4167 7.82074 28.3192 5.17122 26.3657 3.21772C24.4122 1.26421 21.7627 0.166748 19 0.166748C16.2373 0.166748 13.5878 1.26421 11.6343 3.21772C9.6808 5.17122 8.58333 7.82074 8.58333 10.5834C8.58333 13.3461 9.6808 15.9956 11.6343 17.9491C13.5878 19.9026 16.2373 21.0001 19 21.0001ZM19 26.2084C8.5625 26.2084 0.0625 33.2084 0.0625 41.8334C0.0625 42.4167 0.520833 42.8751 1.10417 42.8751H36.8958C37.4792 42.8751 37.9375 42.4167 37.9375 41.8334C37.9375 33.2084 29.4375 26.2084 19 26.2084Z" fill="#545454"/>
</svg>
