<svg width="42" height="42" viewBox="0 0 42 42" fill="none" xmlns="http://www.w3.org/2000/svg">
<path d="M29.7292 0.166748H12.2708C4.6875 0.166748 0.166672 4.68758 0.166672 12.2709V29.7084C0.166672 37.3126 4.6875 41.8334 12.2708 41.8334H29.7083C37.2917 41.8334 41.8125 37.3126 41.8125 29.7293V12.2709C41.8333 4.68758 37.3125 0.166748 29.7292 0.166748ZM11.9792 7.45842C11.9792 6.60425 12.6875 5.89592 13.5417 5.89592C14.3958 5.89592 15.1042 6.60425 15.1042 7.45842V15.5834C15.1042 16.4376 14.3958 17.1459 13.5417 17.1459C12.6875 17.1459 11.9792 16.4376 11.9792 15.5834V7.45842ZM15.8396 30.2313C15.6285 30.3169 15.4467 30.4618 15.3162 30.6485C15.1857 30.8352 15.112 31.0558 15.1042 31.2834V34.5418C15.1042 35.3959 14.3958 36.1043 13.5417 36.1043C12.6875 36.1043 11.9792 35.3959 11.9792 34.5418V31.2834C11.9711 31.0558 11.8973 30.8354 11.7668 30.6488C11.6364 30.4621 11.4547 30.3171 11.2438 30.2313C10.2418 29.7888 9.39 29.0648 8.79193 28.1471C8.19387 27.2295 7.87531 26.1579 7.875 25.0626C7.875 21.9376 10.4167 19.3751 13.5417 19.3751C16.6667 19.3751 19.2292 21.9167 19.2292 25.0626C19.2292 27.3709 17.8333 29.348 15.8396 30.2313ZM30.0208 34.5418C30.0208 35.3959 29.3125 36.1043 28.4583 36.1043C27.6042 36.1043 26.8958 35.3959 26.8958 34.5418V26.4167C26.8958 25.5626 27.6042 24.8542 28.4583 24.8542C29.3125 24.8542 30.0208 25.5626 30.0208 26.4167V34.5418ZM28.4583 22.6042C25.3333 22.6042 22.7708 20.0626 22.7708 16.9167C22.7708 14.6084 24.1667 12.6313 26.1604 11.748C26.3715 11.6624 26.5533 11.5175 26.6838 11.3308C26.8143 11.1441 26.888 10.9236 26.8958 10.6959V7.45842C26.8958 6.60425 27.6042 5.89592 28.4583 5.89592C29.3125 5.89592 30.0208 6.60425 30.0208 7.45842V10.7167C30.0208 11.1813 30.3333 11.5792 30.7563 11.7688C31.7582 12.2113 32.61 12.9354 33.2081 13.853C33.8061 14.7706 34.1247 15.8423 34.125 16.9376C34.125 20.0626 31.5833 22.6042 28.4583 22.6042Z" fill="#545454"/>
</svg>
